With: Zac Efron, Vanessa Hudgens and Ashley Tisdale

Dutch spoken, Nederlands gesproken
Wanneer Troy (Zac Efron) en Gabriella (Vanessa Hudgens) tijdens een karaoke wedstrijd met elkaar zingen ontdekken ze dat ze talent hebben. Maar er worden van allebei hele andere dingen verwacht op hun school. Troy moet het basketbalteam leiden naar de overwinning en Gabriella moet hetzelfde met haar scheikundeclub. Als hun 'groep' erachter komt dat zij auditie hebben gedaan, dwarsbomen zij hun plannen. Tevens zijn de sluwe broer en zus Sharpay (Ashley Tisdale) en Ryan (Lucas Grabeel) ook van plan de hoofdrollen te krijgen en ze zijn tot alles bereid om dat voor elkaar krijgen.

Troy and Gabriella - two teens who are worlds apart - meet at a karaoke contest and discover their mutual love for music. 

------------------ Dutch Friends ------------------
You can find my Friends at: http://www.Film-Test.nl 
------ They got my dutch subs ----- and more ------

General:

Complete name                    : High School Musical\High School Musical.avi
Format                           : AVI
Format/Info                      : Audio Video Interleave
File size                        : 1.08 GiB
Duration                         : 1h 33mn
Overall bit rate                 : 1 645 Kbps

Video:

Format                           : MPEG-4 Visual
Format profile                   : Simple@L3
Format settings, BVOP            : No
Format settings, QPel            : No
Format settings, GMC             : No warppoints
Format settings, Matrix          : Default (H.263)
Codec ID                         : XVID
Codec ID/Hint                    : XviD
Duration                         : 1h 33mn
Bit rate                         : 1 442 Kbps
Width                            : 640 pixels
Height                           : 480 pixels
Display aspect ratio             : 4:3
Frame rate                       : 25.000 fps
Color space                      : YUV
Chroma subsampling               : 4:2:0
Bit depth                        : 8 bits
Scan type                        : Progressive
Compression mode                 : Lossy
Bits/(Pixel*Frame)               : 0.188
Stream size                      : 968 MiB (88%)
Writing library                  : XviD 1.1.2 (UTC 2006-11-01)

Audio:

Format                           : AC-3
Format/Info                      : Audio Coding 3
Mode extension                   : CM (complete main)
Codec ID                         : 2000
Duration                         : 1h 33mn
Bit rate mode                    : Constant
Bit rate                         : 192 Kbps
Channel(s)                       : 2 channels
Channel positions                : Front: L R
Sampling rate                    : 48.0 KHz
Bit depth                        : 16 bits
Compression mode                 : Lossy
Stream size                      : 129 MiB (12%)
Alignment                        : Aligned on interleaves
Interleave, duration             : 32 ms (0.80 video frame)
Interleave, preload duration     : 2560 ms


